<?xml version="1.0" standalone="no"?>
<!DOCTYPE svg PUBLIC "-//W3C//DTD SVG 20010904//EN"
 "http://www.w3.org/TR/2001/REC-SVG-20010904/DTD/svg10.dtd">
<svg version="1.0" xmlns="http://www.w3.org/2000/svg"
 width="208.000000pt" height="208.000000pt" viewBox="0 0 208.000000 208.000000"
 preserveAspectRatio="xMidYMid meet">

<g transform="translate(0.000000,208.000000) scale(0.100000,-0.100000)"
fill="#000000" stroke="none">
<path d="M900 2020 c-196 -27 -426 -140 -563 -275 -390 -383 -393 -1024 -6
-1413 78 -79 216 -176 282 -200 98 -34 157 -50 157 -40 0 5 -8 12 -18 15 -13
3 -18 15 -18 46 -1 23 -5 54 -9 70 -11 40 18 36 63 -9 l36 -36 81 6 c64 6 95
3 159 -14 44 -12 102 -21 130 -22 71 0 96 -12 97 -45 0 -25 1 -26 9 -8 5 11 9
14 9 8 3 -44 175 23 316 122 180 128 326 344 387 574 24 93 30 322 10 416
-102 469 -478 791 -946 809 -61 3 -140 1 -176 -4z m94 -707 c-8 -30 -35 -38
-51 -16 -11 14 -11 19 2 26 8 4 19 6 24 2 5 -3 13 0 16 6 10 16 15 6 9 -18z
m-145 -50 c1 -22 -16 -14 -22 9 -8 28 4 47 14 22 4 -10 8 -25 8 -31z m445 -12
c17 -11 73 -33 125 -50 78 -26 100 -37 137 -76 24 -24 44 -48 44 -51 0 -4 14
-23 32 -43 17 -20 55 -85 83 -146 63 -134 67 -143 55 -150 -6 -4 -10 -21 -10
-40 0 -35 -7 -44 -39 -50 -10 -2 -30 -15 -44 -29 -21 -21 -36 -26 -76 -26 -36
0 -53 5 -59 16 -8 14 -12 14 -33 3 -13 -8 -31 -14 -40 -15 -8 -1 -32 -4 -52
-8 -27 -5 -44 -2 -63 11 -19 12 -51 18 -117 19 -49 2 -95 8 -100 13 -6 6 -19
11 -29 11 -9 0 -22 9 -28 19 -6 12 -17 17 -29 14 -10 -3 -22 0 -25 6 -4 6 -16
11 -28 11 -17 0 -14 7 22 50 45 54 69 115 51 133 -6 6 -11 22 -11 35 0 37 -18
62 -45 62 -24 0 -24 0 -9 37 9 20 14 47 11 60 -2 13 0 23 5 23 6 0 19 12 30
26 11 14 27 23 34 20 9 -3 14 1 15 12 0 13 3 11 9 -5 5 -13 12 -23 16 -23 18
0 72 52 84 79 7 17 16 31 21 31 4 0 11 9 14 20 8 25 10 25 49 1z m-432 -78 c2
-19 14 -34 39 -48 34 -19 35 -22 25 -50 -6 -16 -23 -43 -38 -59 -16 -16 -28
-35 -28 -42 0 -7 -15 -20 -33 -29 -18 -8 -39 -25 -47 -37 -43 -63 -89 -85 -77
-36 3 11 -2 36 -11 55 -13 27 -21 34 -42 32 -14 -2 -36 3 -49 10 -15 8 -40 11
-65 8 l-41 -6 3 43 c3 35 9 46 28 55 13 6 24 19 24 28 0 18 59 66 95 76 24 7
65 16 123 26 23 4 45 11 48 14 13 13 43 -14 46 -40z m162 -290 c-4 -15 -18
-39 -30 -52 -13 -14 -26 -37 -29 -52 -9 -39 -74 -85 -159 -113 -31 -10 -86
-18 -86 -12 0 12 41 46 55 46 9 0 20 11 26 24 6 13 22 30 36 37 14 7 35 26 48
41 37 44 115 108 131 108 11 0 13 -7 8 -27z m-337 -25 c-3 -8 -6 -5 -6 6 -1
11 2 17 5 13 3 -3 4 -12 1 -19z m-277 -169 c7 -11 9 -23 7 -26 -10 -9 -45 21
-40 34 7 19 21 16 33 -8z m295 -58 c-5 -9 -45 -22 -45 -16 0 2 7 11 16 19 15
16 39 13 29 -3z m467 -423 c-6 -6 -15 -8 -19 -4 -4 4 -1 11 7 16 19 12 27 3
12 -12z"/>
</g>
</svg>
